<?xml version="1.0" encoding="utf-8"?>

<svg version="1.1" id="Layer_1" xmlns="http://www.w3.org/2000/svg" xmlns:xlink="http://www.w3.org/1999/xlink" x="0px" y="0px" viewBox="0 0 237.1 80.1" style="enable-background:new 0 0 237.1 80.1;" xml:space="preserve">



<path d="M1,53l1.9-4.2c2,1.2,4.4,1.8,6.7,1.8c3.9,0,5.7-1.8,5.7-5.4v-1c-1.5,2.1-3.9,3.3-6.5,3.2C4.2,47.4,0,44,0,38.1v-0.1&#xA;&#x9;c0-5.9,4.2-9.3,8.8-9.3c2.5,0,4.8,1.1,6.4,3v-2.6h5.6v15.4c0,3.5-0.8,6.1-2.5,7.8c-1.8,1.8-4.7,2.6-8.6,2.6C6.7,55.1,3.7,54.4,1,53z&#xA;&#x9; M15.3,38.1L15.3,38.1c0-2.6-2-4.6-4.6-4.7c-0.1,0-0.2,0-0.3,0c-2.5-0.1-4.7,1.8-4.8,4.3c0,0.1,0,0.2,0,0.3v0.1c0,2.5,2,4.6,4.5,4.6&#xA;&#x9;c0.1,0,0.2,0,0.4,0c2.5,0.2,4.7-1.7,4.8-4.3C15.3,38.3,15.3,38.2,15.3,38.1z"></path>
<path d="M21.4,43.3L21.4,43.3c0-4.4,3.3-6.4,8-6.4c1.7,0,3.3,0.3,4.8,0.8v-0.3c0-2.3-1.4-3.7-4.2-3.7c-1.9,0-3.7,0.4-5.5,1.1&#xA;&#x9;l-1.4-4.3c2.4-1.1,5.1-1.7,7.7-1.6c3.1,0,5.3,0.8,6.7,2.2c1.5,1.7,2.3,4,2.1,6.3V49h-5.5v-2.2c-1.5,1.7-3.7,2.6-6,2.5&#xA;&#x9;C24.4,49.4,21.4,47.3,21.4,43.3z M34.3,42v-1c-1.1-0.5-2.3-0.7-3.6-0.7c-2.4,0-3.9,1-3.9,2.7v0.1c0,1.5,1.3,2.4,3.1,2.4&#xA;&#x9;C32.5,45.5,34.3,44.1,34.3,42z"></path>
<path d="M41.2,29.2h5.6V32c1.3-2,3.5-3.2,5.8-3.2c2.3-0.1,4.5,1.1,5.6,3.2c1.6-2,4-3.2,6.5-3.1c4.2,0,6.7,2.5,6.7,7.3V49h-5.6V38&#xA;&#x9;c0-2.7-1.2-4-3.3-4s-3.4,1.4-3.4,4v11h-5.6V38c0-2.7-1.2-4-3.3-4s-3.4,1.4-3.4,4v11h-5.6V29.2z"></path>
<path d="M78.6,46.5v2.6H73V22h5.6v10c1.4-2,3.7-3.3,6.2-3.2c4.7,0,9,3.7,9,10.3v0.1c0,6.6-4.3,10.3-9,10.3&#xA;&#x9;C82.4,49.4,80.1,48.3,78.6,46.5z M88.2,39.1L88.2,39.1c0-3.4-2.2-5.5-4.8-5.5s-4.8,2.2-4.8,5.5v0.1c0,3.3,2.2,5.5,4.8,5.5&#xA;&#x9;S88.2,42.5,88.2,39.1z"></path>
<rect x="94.9" y="22" width="5.6" height="27"></rect>
<path d="M102.6,22h5.9v5h-5.9V22z M102.8,29.2h5.6V49h-5.6L102.8,29.2z"></path>
<path d="M110.4,29.2h5.6V32c1.3-2,3.5-3.2,5.8-3.2c4.2,0,6.8,2.8,6.8,7.4v12.9H123V38c0-2.7-1.3-4-3.4-4s-3.6,1.3-3.6,4v11h-5.6&#xA;&#x9;L110.4,29.2L110.4,29.2z"></path>
<path d="M130.2,53l1.9-4.2c2,1.2,4.4,1.8,6.7,1.8c3.8,0,5.7-1.8,5.7-5.4v-1c-1.5,2.1-3.9,3.3-6.5,3.2c-4.6,0-8.8-3.4-8.8-9.3v-0.1&#xA;&#x9;c0-5.9,4.2-9.3,8.8-9.3c2.5,0,4.8,1.1,6.4,3v-2.6h5.6v15.4c0,3.5-0.8,6.1-2.5,7.8c-1.8,1.8-4.7,2.6-8.6,2.6&#xA;&#x9;C136,55.1,133,54.4,130.2,53z M144.6,38.2L144.6,38.2c-0.2-2.7-2.5-4.8-5.1-4.6c-2.4,0.2-4.4,2.1-4.5,4.5v0.1c0,2.5,2,4.6,4.5,4.6&#xA;&#x9;c0.1,0,0.2,0,0.4,0c2.5,0.2,4.7-1.8,4.8-4.3C144.5,38.3,144.6,38.2,144.6,38.2L144.6,38.2z"></path>
<circle class="st0" fill="#E60000" cx="197" cy="40.1" r="40"></circle>
<path class="st1" fill="#FFFFFF" d="M218.5,61.3c3.6-3.7,6.2-8.2,7.5-13.1l7.2,4.1c2.7-7.9,2.7-16.4,0-24.3l-7.2,4.1c-1.4-4.9-3.9-9.4-7.5-13.1&#xA;&#x9;l7.1-4.1c-5.5-6.2-12.9-10.5-21.1-12.2V11c-5-1.3-10.2-1.3-15.1,0V2.7c-8.2,1.6-15.6,5.9-21.1,12.2l7.1,4.1&#xA;&#x9;c-3.6,3.7-6.2,8.2-7.5,13.1l-7.2-4.1c-2.7,7.9-2.7,16.4,0,24.3l7.2-4.2c1.4,4.9,4,9.4,7.6,13.1l-7.2,4.1&#xA;&#x9;c5.5,6.3,12.9,10.5,21.1,12.2v-8.3c5,1.3,10.2,1.3,15.1,0v8.3c8.2-1.6,15.6-5.9,21.1-12.2L218.5,61.3z M197,68.7&#xA;&#x9;c-15.8,0-28.6-12.8-28.6-28.6s12.8-28.6,28.6-28.6c15.8,0,28.6,12.8,28.6,28.6S212.8,68.7,197,68.7C197,68.7,197,68.7,197,68.7z"></path>
<path class="st1" fill="#FFFFFF" d="M173.2,42.6h3.7v3.7h-3.7V42.6z"></path>
<path class="st1" fill="#FFFFFF" d="M177,40.2L177,40.2c-0.1-3.5,2.7-6.4,6.2-6.5c0.1,0,0.2,0,0.2,0c1.9-0.1,3.7,0.6,5,2.1l-2.1,2.3&#xA;&#x9;c-0.7-0.9-1.7-1.4-2.8-1.4c-1.7,0.1-3.1,1.6-3,3.3c0,0,0,0,0,0l0,0c-0.1,1.7,1.2,3.3,2.9,3.4c0.1,0,0.2,0,0.2,0&#xA;&#x9;c1.1,0,2.1-0.5,2.8-1.3l2,2.1c-2.3,2.8-6.5,3.1-9.2,0.7C177.9,43.8,177,42.1,177,40.2z"></path>
<path class="st1" fill="#FFFFFF" d="M188,40.2L188,40.2c0-3.6,3-6.5,6.6-6.5c0,0,0.1,0,0.1,0c3.5-0.1,6.5,2.6,6.7,6.2c0,0.1,0,0.1,0,0.2l0,0&#xA;&#x9;c0,3.6-3,6.5-6.6,6.5c0,0-0.1,0-0.1,0c-3.5,0.1-6.5-2.6-6.7-6.2C188,40.3,188,40.3,188,40.2z M197.9,40.2L197.9,40.2&#xA;&#x9;c0.1-1.8-1.3-3.3-3.1-3.4c0,0-0.1,0-0.1,0c-1.8,0-3.2,1.4-3.2,3.1c0,0.1,0,0.2,0,0.3l0,0c-0.1,1.8,1.3,3.3,3.1,3.4c0,0,0.1,0,0.1,0&#xA;&#x9;c1.8,0,3.2-1.4,3.2-3.2C197.9,40.3,197.9,40.3,197.9,40.2L197.9,40.2z"></path>
<path class="st1" fill="#FFFFFF" d="M202,34h3.5v1.7c0.8-1.2,2.2-2,3.6-2c1.5-0.1,2.8,0.7,3.5,2c1-1.3,2.4-2,4-2c2.6,0,4.2,1.6,4.2,4.5v8.1h-3.5&#xA;&#x9;v-6.9c0-1.7-0.7-2.5-2-2.5s-2.1,0.9-2.1,2.5v6.9h-3.5v-6.9c0-1.7-0.7-2.5-2-2.5s-2.1,0.9-2.1,2.5v6.9h-3.5L202,34L202,34z"></path>
</svg>