<?xml version="1.0" encoding="UTF-8"?>
<svg id="Layer_1" data-name="Layer 1" xmlns="http://www.w3.org/2000/svg" version="1.1" viewBox="0 0 237.1 80.1">
  <defs>
    
  </defs>
  <g>
    <path class="cls-1" d="M1,53l1.9-4.2c2,1.1,4.1,1.8,6.7,1.8,3.8,0,5.7-1.8,5.7-5.4v-1c-1.7,2-3.5,3.2-6.5,3.2-4.7,0-8.9-3.3-8.9-9.3h0c0-6,4.2-9.3,8.8-9.3s4.9,1.3,6.4,3v-2.6h5.6v15.4c0,3.5-.8,6.2-2.5,7.8s-4.7,2.7-8.6,2.7-6.3-.7-8.8-2.1ZM15.3,38.1h0c0-2.8-2.1-4.6-4.8-4.6s-4.8,1.9-4.8,4.6h0c0,2.8,2.1,4.6,4.8,4.6,2.7,0,4.8-1.9,4.8-4.6Z"></path>
    <path class="cls-1" d="M21.4,43.3h0c0-4.4,3.3-6.4,8-6.4s3.4.3,4.8.8v-.3c0-2.3-1.4-3.6-4.2-3.6s-3.7.4-5.5,1.1l-1.4-4.3c2.2-1,4.3-1.6,7.7-1.6s5.3.8,6.7,2.2c1.5,1.5,2.1,3.7,2.1,6.3v11.5h-5.4v-2.1c-1.4,1.5-3.3,2.5-6,2.5-3.7,0-6.8-2.1-6.8-6ZM34.3,42v-1c-1-.4-2.2-.7-3.6-.7-2.4,0-3.9,1-3.9,2.7h0c0,1.6,1.3,2.5,3.1,2.5,2.6,0,4.4-1.4,4.4-3.5Z"></path>
    <path class="cls-1" d="M41.2,29.2h5.6v2.8c1.3-1.7,3-3.2,5.9-3.2s4.5,1.1,5.6,3.1c1.7-2,3.8-3.1,6.5-3.1,4.2,0,6.7,2.5,6.7,7.3v12.9h-5.6v-11.1c0-2.7-1.2-4-3.3-4s-3.4,1.4-3.4,4v11.1h-5.6v-11.1c0-2.7-1.2-4-3.3-4s-3.4,1.4-3.4,4v11.1h-5.6s0-19.9,0-19.9Z"></path>
    <path class="cls-1" d="M78.6,46.5v2.6h-5.6v-27.1h5.6v10c1.4-1.8,3.3-3.2,6.2-3.2,4.6,0,9,3.6,9,10.3h0c0,6.7-4.3,10.3-9,10.3s-4.8-1.4-6.2-2.9ZM88.2,39.1h0c0-3.4-2.2-5.5-4.8-5.5s-4.8,2.2-4.8,5.5h0c0,3.4,2.2,5.5,4.8,5.5s4.8-2.1,4.8-5.5Z"></path>
    <rect class="cls-1" x="94.9" y="22" width="5.6" height="27"></rect>
    <path class="cls-1" d="M102.6,22h5.9v5h-5.9v-5ZM102.8,29.2h5.6v19.9h-5.6v-19.9Z"></path>
    <path class="cls-1" d="M110.4,29.2h5.6v2.8c1.3-1.7,3-3.2,5.8-3.2,4.2,0,6.8,2.8,6.8,7.4v12.9h-5.6v-11.1c0-2.7-1.3-4-3.4-4s-3.5,1.4-3.5,4v11.1h-5.6v-19.9h0Z"></path>
    <path class="cls-1" d="M130.2,53l1.9-4.2c2,1.1,4.1,1.8,6.7,1.8,3.8,0,5.7-1.8,5.7-5.4v-1c-1.7,2-3.5,3.2-6.5,3.2-4.6,0-8.8-3.4-8.8-9.3h0c0-6,4.2-9.3,8.8-9.3s4.9,1.3,6.4,3v-2.6h5.6v15.4c0,3.5-.8,6.2-2.5,7.8s-4.7,2.7-8.6,2.7-6.3-.7-8.8-2.1ZM144.5,38.1h0c0-2.8-2.1-4.6-4.8-4.6s-4.8,1.9-4.8,4.6h0c0,2.8,2.1,4.6,4.8,4.6s4.8-1.9,4.8-4.6Z"></path>
  </g>
  <circle class="cls-2" cx="197" cy="40.1" r="40"></circle>
  <path class="cls-1" d="M218.5,61.3c3.5-3.6,6.2-8.1,7.6-13.1l7.2,4.1c1.3-3.8,2-7.9,2-12.2s-.7-8.3-2-12.2l-7.2,4.1c-1.4-5-4-9.5-7.6-13.1l7.2-4.1c-5.4-6.1-12.7-10.5-21.1-12.2v8.3c-2.4-.6-4.9-1-7.6-1s-5.1.3-7.6,1V2.7c-8.3,1.7-15.7,6-21.1,12.2l7.2,4.1c-3.5,3.6-6.2,8.1-7.6,13.1l-7.2-4.1c-1.3,3.8-2,7.9-2,12.2s.7,8.3,2,12.2l7.2-4.1c1.4,5,4,9.5,7.6,13.1l-7.2,4.1c5.4,6.1,12.7,10.5,21.1,12.2v-8.3c2.4.6,4.9,1,7.6,1s5.1-.3,7.6-1v8.3c8.3-1.7,15.7-6.1,21.1-12.2l-7.2-4.1ZM197,68.7c-15.8,0-28.6-12.8-28.6-28.6s12.8-28.6,28.6-28.6,28.6,12.8,28.6,28.6-12.8,28.6-28.6,28.6Z"></path>
  <g>
    <path class="cls-1" d="M173.2,42.6h3.7v3.7h-3.7v-3.7Z"></path>
    <path class="cls-1" d="M177,40.2h0c0-3.6,2.7-6.5,6.5-6.5s3.8.8,4.9,2.1l-2.1,2.3c-.8-.8-1.6-1.4-2.8-1.4s-3,1.5-3,3.4h0c0,1.9,1.2,3.4,3.1,3.4s2-.5,2.8-1.3l2,2.1c-1.2,1.3-2.6,2.3-5,2.3-3.7,0-6.5-2.8-6.5-6.4Z"></path>
    <path class="cls-1" d="M188,40.2h0c0-3.6,2.9-6.5,6.7-6.5s6.7,2.8,6.7,6.4h0c0,3.6-2.9,6.5-6.7,6.5s-6.7-2.8-6.7-6.4ZM197.9,40.2h0c0-1.9-1.3-3.4-3.2-3.4s-3.2,1.5-3.2,3.4h0c0,1.9,1.3,3.4,3.2,3.4s3.2-1.5,3.2-3.4Z"></path>
    <path class="cls-1" d="M202,34h3.5v1.7c.8-1,1.9-2,3.6-2s2.8.7,3.5,2c1.1-1.3,2.4-2,4-2,2.6,0,4.2,1.6,4.2,4.5v8.1h-3.5v-6.9c0-1.7-.7-2.5-2-2.5s-2.1.9-2.1,2.5v6.9h-3.5v-6.9c0-1.7-.7-2.5-2-2.5s-2.1.9-2.1,2.5v6.9h-3.5v-12.4h0Z"></path>
  </g>
</svg>