<svg width="32" height="32" viewBox="0 0 32 32" fill="none" xmlns="http://www.w3.org/2000/svg">
  <rect width="32" height="32" rx="6" fill="#E10600"/>
  <g transform="translate(2, 6) scale(0.14)">
    <path
      fill-rule="evenodd"
      clip-rule="evenodd"
      d="M 4 109 L 26 4 L 100 4 L 118 4 L 176 4 L 152 109 L 130 109 L 148 24 L 118 24 L 114 40 L 114 40 L 100 40 L 96 56 L 60 56 L 54 76 L 88 76 L 86 84 L 48 84 L 40 109 L 20 109 Z M 126 28 L 120 50 L 116 68 L 112 86 L 110 96 L 134 96 L 144 44 L 148 28 L 138 28 L 132 22 L 126 28 Z"
      fill="#FFFFFF"
    />
    <rect x="98" y="42" width="14" height="6" rx="3" fill="#FFFFFF"/>
    <rect x="96" y="54" width="14" height="6" rx="3" fill="#FFFFFF"/>
    <rect x="92" y="66" width="16" height="6" rx="3" fill="#FFFFFF"/>
  </g>
</svg>
